<?xml version="1.0" encoding="utf-8"?>
<!-- Generator: Adobe Illustrator 18.0.0, SVG Export Plug-In . SVG Version: 6.00 Build 0)  -->
<!DOCTYPE svg PUBLIC "-//W3C//DTD SVG 1.0//EN" "http://www.w3.org/TR/2001/REC-SVG-20010904/DTD/svg10.dtd">
<svg version="1.0" id="Vrstva_1" xmlns="http://www.w3.org/2000/svg" xmlns:xlink="http://www.w3.org/1999/xlink" x="0px" y="0px"
	 viewBox="0 0 447 99.2" enable-background="new 0 0 447 99.2" xml:space="preserve">
<polygon fill="#00A0E1" points="447,33.1 403.6,33.1 403.6,0 288.7,0 288.7,33.1 252,33.1 252,66.1 203.6,66.1 203.6,99.2 
	375.6,99.2 375.6,66.1 447,66.1 "/>
<polygon fill="#DC0021" points="103.2,0 103.2,99.2 203.6,99.2 203.6,66.1 252,66.1 252,33.1 288.7,33.1 288.7,0 "/>
<rect y="0" fill="#DC0021" width="99.2" height="99.2"/>
<polygon fill="#FFFFFF" points="198.2,4.9 195.1,4.9 193.1,8.1 195.3,8.1 "/>
<rect x="191.1" y="41.9" fill="#FFFFFF" width="2.8" height="16.5"/>
<g>
	<defs>
		<rect id="SVGID_1_" x="15" y="4" width="421" height="88"/>
	</defs>
	<clipPath id="SVGID_2_">
		<use xlink:href="#SVGID_1_"  overflow="visible"/>
	</clipPath>
	<path clip-path="url(#SVGID_2_)" fill="#FFFFFF" d="M206.2,41.9h-3.8c-2.4,0-4,1.6-4,4v8.5c0,2.4,1.6,4,4,4h3.8c2.4,0,4-1.6,4-4v-1
		h-2.8v1.2c0,0.8-0.6,1.4-1.4,1.4h-3.3c-0.8,0-1.4-0.6-1.4-1.4v-8.8c0-0.8,0.6-1.4,1.4-1.4h3.3c0.8,0,1.4,0.6,1.4,1.4v1.2h2.8v-1
		C210.2,43.5,208.5,41.9,206.2,41.9"/>
	<polygon clip-path="url(#SVGID_2_)" fill="#FFFFFF" points="226.2,41.9 223.1,41.9 217.2,49.4 217.1,49.4 217.1,41.9 214.2,41.9 
		214.2,58.4 217.1,58.4 217.1,53.6 218.9,51.2 223.5,58.4 226.9,58.4 220.7,48.8 	"/>
	<path clip-path="url(#SVGID_2_)" fill="#FFFFFF" d="M153.6,54.4v-1h-2.8v1.2c0,0.8-0.6,1.4-1.4,1.4h-3.3c-0.8,0-1.4-0.6-1.4-1.4
		v-8.8c0-0.8,0.6-1.4,1.4-1.4h3.3c0.8,0,1.4,0.6,1.4,1.4v1.2h2.8v-1c0-2.4-1.6-4-4-4h-3.8c-2.4,0-4,1.6-4,4v8.5c0,2.4,1.6,4,4,4h3.8
		C152,58.4,153.6,56.8,153.6,54.4"/>
	<polygon clip-path="url(#SVGID_2_)" fill="#FFFFFF" points="233.1,41.1 235.3,41.1 238.2,38 235.1,38 	"/>
	<polygon clip-path="url(#SVGID_2_)" fill="#FFFFFF" points="232.8,51.3 239.6,51.3 239.6,48.9 232.8,48.9 232.8,44.3 240.1,44.3 
		240.1,41.9 230,41.9 230,58.4 240.3,58.4 240.3,55.9 232.8,55.9 	"/>
	<polygon clip-path="url(#SVGID_2_)" fill="#FFFFFF" points="138.1,55.9 130.6,55.9 130.6,51.3 137.4,51.3 137.4,48.9 130.6,48.9 
		130.6,44.3 137.9,44.3 137.9,41.9 127.7,41.9 127.7,58.4 138.1,58.4 	"/>
	<polygon clip-path="url(#SVGID_2_)" fill="#FFFFFF" points="120,58.4 120,44.3 124.7,44.3 124.7,41.9 112.4,41.9 112.4,44.3 
		117.1,44.3 117.1,58.4 	"/>
	<polygon clip-path="url(#SVGID_2_)" fill="#FFFFFF" points="186.6,58.4 186.6,41.9 183.8,41.9 183.8,53.2 183.7,53.2 177.2,41.9 
		174.4,41.9 174.4,58.4 177.2,58.4 177.2,47.1 177.3,47.1 183.8,58.4 	"/>
	<polygon clip-path="url(#SVGID_2_)" fill="#FFFFFF" points="160.5,51.3 167.1,51.3 167.1,58.4 169.9,58.4 169.9,41.9 167.1,41.9 
		167.1,48.9 160.5,48.9 160.5,41.9 157.6,41.9 157.6,58.4 160.5,58.4 	"/>
	<path clip-path="url(#SVGID_2_)" fill="#FFFFFF" d="M143.2,83.1L143.2,83.1c1.1-0.7,1.7-1.8,1.7-3.2V79c0-2.4-1.6-4-4-4h-7.4v16.5
		h7.8c2.4,0,4-1.6,4-4v-1C145.3,84.8,144.5,83.7,143.2,83.1 M136.4,77.4h4.4c0.8,0,1.4,0.6,1.4,1.4v1.8c0,0.8-0.5,1.3-1.3,1.3h-4.5
		V77.4z M142.5,87.6c0,0.9-0.6,1.4-1.4,1.4h-4.7v-4.6h4.9c0.8,0,1.3,0.5,1.3,1.3V87.6z"/>
	<polygon clip-path="url(#SVGID_2_)" fill="#FFFFFF" points="185.5,71.1 183,71.1 185.3,74.2 188.1,74.2 190.4,71.1 188.1,71.1 
		186.8,72.8 	"/>
	<polygon clip-path="url(#SVGID_2_)" fill="#FFFFFF" points="174.3,86.3 174.2,86.3 167.7,75 164.9,75 164.9,91.5 167.7,91.5 
		167.7,80.2 167.8,80.2 174.3,91.5 177.1,91.5 177.1,75 174.3,75 	"/>
	<polygon clip-path="url(#SVGID_2_)" fill="#FFFFFF" points="118.7,87.5 118.6,87.5 114.7,75 111.7,75 117,91.5 120,91.5 125.3,75 
		122.6,75 	"/>
	<path clip-path="url(#SVGID_2_)" fill="#FFFFFF" d="M160.9,81.1V79c0-2.4-1.6-4-4-4h-7.5v16.5h2.8v-6.4h2.8l3.3,6.4h3.1l-3.4-6.5
		C159.7,84.6,160.9,83.1,160.9,81.1 M156.6,82.6h-4.5v-5.2h4.5c0.8,0,1.4,0.6,1.4,1.4v2.4C158,82.1,157.5,82.6,156.6,82.6"/>
	<polygon clip-path="url(#SVGID_2_)" fill="#FFFFFF" points="184.4,84.4 191.2,84.4 191.2,81.9 184.4,81.9 184.4,77.4 191.7,77.4 
		191.7,75 181.6,75 181.6,91.5 191.9,91.5 191.9,89 184.4,89 	"/>
	<rect x="274" y="8.8" clip-path="url(#SVGID_2_)" fill="#FFFFFF" width="2.8" height="16.5"/>
	<path clip-path="url(#SVGID_2_)" fill="#FFFFFF" d="M219.1,25.3c2.4,0,4-1.6,4-4V8.8h-2.8v12.6c0,0.8-0.6,1.4-1.4,1.4h-3.8
		c-0.8,0-1.4-0.6-1.4-1.4V8.8h-2.8v12.5c0,2.4,1.6,4,4,4H219.1z"/>
	<polygon clip-path="url(#SVGID_2_)" fill="#FFFFFF" points="279.4,4.9 276.3,4.9 274.3,8.1 276.5,8.1 	"/>
	<polygon clip-path="url(#SVGID_2_)" fill="#FFFFFF" points="132,25.3 134.9,25.3 134.9,18.3 140.5,8.8 137.5,8.8 133.7,15.6 
		133.6,15.6 129.9,8.8 126.7,8.8 132,18.3 	"/>
	<polygon clip-path="url(#SVGID_2_)" fill="#FFFFFF" points="177.1,20.5 178.9,18.2 183.5,25.3 186.9,25.3 180.7,15.8 186.1,8.8 
		183.1,8.8 177.2,16.4 177.1,16.4 177.1,8.8 174.2,8.8 174.2,25.3 177.1,25.3 	"/>
	<path clip-path="url(#SVGID_2_)" fill="#FFFFFF" d="M231.6,25.3h3.8c2.4,0,4-1.6,4-4v-1h-2.8v1.2c0,0.8-0.6,1.4-1.4,1.4h-3.3
		c-0.8,0-1.4-0.6-1.4-1.4v-8.8c0-0.8,0.6-1.4,1.4-1.4h3.3c0.8,0,1.4,0.6,1.4,1.4v1.2h2.8v-1c0-2.4-1.6-4-4-4h-3.8c-2.4,0-4,1.6-4,4
		v8.5C227.6,23.7,229.3,25.3,231.6,25.3"/>
	<path clip-path="url(#SVGID_2_)" fill="#FFFFFF" d="M161.9,25.3h4.2c2.4,0,4-1.6,4-4v-8.5c0-2.4-1.6-4-4-4h-4.2c-2.4,0-4,1.6-4,4
		v8.5C157.9,23.7,159.5,25.3,161.9,25.3 M160.7,12.7c0-0.8,0.6-1.4,1.4-1.4h3.8c0.8,0,1.4,0.6,1.4,1.4v8.8c0,0.8-0.6,1.4-1.4,1.4
		h-3.8c-0.8,0-1.4-0.6-1.4-1.4V12.7z"/>
	<polygon clip-path="url(#SVGID_2_)" fill="#FFFFFF" points="200.3,22.9 192.8,22.9 192.8,18.3 199.6,18.3 199.6,15.8 192.8,15.8 
		192.8,11.3 200.1,11.3 200.1,8.8 189.9,8.8 189.9,25.3 200.3,25.3 	"/>
	<polygon clip-path="url(#SVGID_2_)" fill="#FFFFFF" points="246,18.3 252.8,18.3 252.8,15.8 246,15.8 246,11.3 253.3,11.3 
		253.3,8.8 243.2,8.8 243.2,25.3 253.5,25.3 253.5,22.9 246,22.9 	"/>
	<polygon clip-path="url(#SVGID_2_)" fill="#FFFFFF" points="118.7,21.4 118.6,21.4 114.7,8.8 111.7,8.8 117,25.3 120,25.3 
		125.3,8.8 122.6,8.8 	"/>
	<polygon clip-path="url(#SVGID_2_)" fill="#FFFFFF" points="234.9,8.1 237.1,4.9 234.8,4.9 233.5,6.6 232.2,4.9 229.8,4.9 232,8.1 
			"/>
	<path clip-path="url(#SVGID_2_)" fill="#FFFFFF" d="M145.9,25.3h3.8c2.4,0,4-1.6,4-4v-1.5c0-2.4-1.6-4-4-4h-3.3
		c-0.9,0-1.4-0.6-1.4-1.4v-1.7c0-0.8,0.6-1.4,1.4-1.4h2.9c0.8,0,1.4,0.6,1.4,1.4v1.2h2.8v-1c0-2.4-1.6-4-4-4h-3.4c-2.4,0-4,1.6-4,4
		v1.4c0,2.4,1.6,4,4,4h3.3c0.8,0,1.4,0.6,1.4,1.4v1.8c0,0.8-0.6,1.4-1.4,1.4h-3.3c-0.8,0-1.4-0.6-1.4-1.4v-1.2h-2.8v1
		C141.9,23.7,143.5,25.3,145.9,25.3"/>
	<polygon clip-path="url(#SVGID_2_)" fill="#FFFFFF" points="260.1,14 260.2,14 266.7,25.3 269.5,25.3 269.5,8.8 266.7,8.8 
		266.7,20.1 266.6,20.1 260.1,8.8 257.3,8.8 257.3,25.3 260.1,25.3 	"/>
	<polygon clip-path="url(#SVGID_2_)" fill="#FFFFFF" points="329,20.5 330.8,18.2 335.5,25.3 338.9,25.3 332.7,15.8 338.1,8.8 
		335,8.8 329.1,16.4 329,16.4 329,8.8 326.2,8.8 326.2,25.3 329,25.3 	"/>
	<path clip-path="url(#SVGID_2_)" fill="#FFFFFF" d="M345.9,25.3h4.2c2.4,0,4-1.6,4-4V8.8h-2.8v12.6c0,0.8-0.6,1.4-1.4,1.4h-3.8
		c-0.8,0-1.4-0.6-1.4-1.4V8.8h-2.8v12.5C341.9,23.7,343.5,25.3,345.9,25.3"/>
	<path clip-path="url(#SVGID_2_)" fill="#FFFFFF" d="M312.9,21.1h5.9l1.4,4.2h2.9l-5.7-16.5h-2.9l-5.7,16.5h2.7L312.9,21.1z
		 M315.8,12.5L315.8,12.5l2.2,6.2h-4.3L315.8,12.5z"/>
	<polygon clip-path="url(#SVGID_2_)" fill="#FFFFFF" points="301.4,18.3 307.7,18.3 307.7,15.8 301.4,15.8 301.4,11.3 308.2,11.3 
		308.2,8.8 298.5,8.8 298.5,25.3 301.4,25.3 	"/>
	<polygon clip-path="url(#SVGID_2_)" fill="#FFFFFF" points="372.9,25.3 375.7,25.3 375.7,11.3 380.4,11.3 380.4,8.8 368.2,8.8 
		368.2,11.3 372.9,11.3 	"/>
	<polygon clip-path="url(#SVGID_2_)" fill="#FFFFFF" points="368.3,22.9 361.5,22.9 361.5,8.8 358.6,8.8 358.6,25.3 368.3,25.3 	"/>
	<path clip-path="url(#SVGID_2_)" fill="#FFFFFF" d="M390.1,21.1l1.4,4.2h2.9l-5.7-16.5h-2.9l-5.7,16.5h2.7l1.4-4.2H390.1z
		 M387.1,12.5L387.1,12.5l2.2,6.2h-4.3L387.1,12.5z"/>
	<polygon clip-path="url(#SVGID_2_)" fill="#FFFFFF" points="282.2,58.4 282.2,41.9 279.3,41.9 279.3,53.2 279.2,53.2 272.7,41.9 
		269.9,41.9 269.9,58.4 272.7,58.4 272.7,47.1 272.8,47.1 279.3,58.4 	"/>
	<polygon clip-path="url(#SVGID_2_)" fill="#FFFFFF" points="339.5,58.4 343.9,48.2 344.1,48.2 344.1,58.4 346.9,58.4 346.9,41.9 
		344.2,41.9 339.6,52.4 339.5,52.4 334.9,41.9 332,41.9 332,58.4 334.8,58.4 334.8,48.2 334.9,48.2 339.4,58.4 	"/>
	<path clip-path="url(#SVGID_2_)" fill="#FFFFFF" d="M364.2,58.4l-5.7-16.5h-2.9l-5.7,16.5h2.7l1.4-4.2h5.9l1.4,4.2H364.2z
		 M354.8,51.8l2.1-6.2h0.1l2.1,6.2H354.8z"/>
	<path clip-path="url(#SVGID_2_)" fill="#FFFFFF" d="M325.3,58.4h3.1l-3.4-6.5c1.8-0.4,2.9-1.9,2.9-3.9v-2.1c0-2.4-1.6-4-4-4h-7.5
		v16.5h2.8V52h2.8L325.3,58.4z M319.3,44.3h4.5c0.8,0,1.4,0.6,1.4,1.4v2.4c0,0.8-0.6,1.4-1.4,1.4h-4.5V44.3z"/>
	<polygon clip-path="url(#SVGID_2_)" fill="#FFFFFF" points="400.1,41.1 402.2,41.1 405.1,38 402,38 	"/>
	<rect x="262.6" y="41.9" clip-path="url(#SVGID_2_)" fill="#FFFFFF" width="2.8" height="16.5"/>
	<path clip-path="url(#SVGID_2_)" fill="#FFFFFF" d="M312,54.4v-8.5c0-2.4-1.6-4-4-4h-4.2c-2.4,0-4,1.6-4,4v8.5c0,2.4,1.6,4,4,4h4.2
		C310.3,58.4,312,56.8,312,54.4 M304,55.9c-0.8,0-1.4-0.6-1.4-1.4v-8.8c0-0.8,0.6-1.4,1.4-1.4h3.8c0.8,0,1.4,0.6,1.4,1.4v8.8
		c0,0.8-0.6,1.4-1.4,1.4H304z"/>
	<polygon clip-path="url(#SVGID_2_)" fill="#FFFFFF" points="295.8,48.9 289.5,48.9 289.5,44.3 296.3,44.3 296.3,41.9 286.6,41.9 
		286.6,58.4 289.5,58.4 289.5,51.3 295.8,51.3 	"/>
	<path clip-path="url(#SVGID_2_)" fill="#FFFFFF" d="M375,41.9h-3.8c-2.4,0-4,1.6-4,4v8.5c0,2.4,1.6,4,4,4h3.8c2.4,0,4-1.6,4-4v-1
		h-2.8v1.2c0,0.8-0.6,1.4-1.4,1.4h-3.3c-0.9,0-1.4-0.6-1.4-1.4v-8.8c0-0.8,0.6-1.4,1.4-1.4h3.3c0.8,0,1.4,0.6,1.4,1.4v1.2h2.8v-1
		C379,43.5,377.4,41.9,375,41.9"/>
	<polygon clip-path="url(#SVGID_2_)" fill="#FFFFFF" points="392.5,53.2 392.4,53.2 385.9,41.9 383,41.9 383,58.4 385.9,58.4 
		385.9,47.1 386,47.1 392.5,58.4 395.3,58.4 395.3,41.9 392.5,41.9 	"/>
	<polygon clip-path="url(#SVGID_2_)" fill="#FFFFFF" points="432.3,41.9 432.3,48.9 425.7,48.9 425.7,41.9 422.8,41.9 422.8,58.4 
		425.7,58.4 425.7,51.3 432.3,51.3 432.3,58.4 435.1,58.4 435.1,41.9 	"/>
	<polygon clip-path="url(#SVGID_2_)" fill="#FFFFFF" points="373.2,39.7 371.9,38 369.4,38 371.7,41.1 374.5,41.1 376.8,38 
		374.4,38 	"/>
	<rect x="399.8" y="41.9" clip-path="url(#SVGID_2_)" fill="#FFFFFF" width="2.8" height="16.5"/>
	<path clip-path="url(#SVGID_2_)" fill="#FFFFFF" d="M414.8,41.9h-3.8c-2.4,0-4,1.6-4,4v8.5c0,2.4,1.6,4,4,4h3.8c2.4,0,4-1.6,4-4v-1
		H416v1.2c0,0.8-0.6,1.4-1.4,1.4h-3.3c-0.8,0-1.4-0.6-1.4-1.4v-8.8c0-0.8,0.6-1.4,1.4-1.4h3.3c0.9,0,1.4,0.6,1.4,1.4v1.2h2.8v-1
		C418.8,43.5,417.2,41.9,414.8,41.9"/>
	<polygon clip-path="url(#SVGID_2_)" fill="#FFFFFF" points="310.3,75 307.5,75 307.5,91.5 317.1,91.5 317.1,89 310.3,89 	"/>
	<path clip-path="url(#SVGID_2_)" fill="#FFFFFF" d="M299,75h-4.2c-2.4,0-4,1.6-4,4v8.5c0,2.4,1.6,4,4,4h4.2c2.4,0,4-1.6,4-4V79
		C303,76.6,301.4,75,299,75 M300.2,87.6c0,0.9-0.6,1.4-1.4,1.4H295c-0.8,0-1.4-0.6-1.4-1.4v-8.8c0-0.8,0.6-1.4,1.4-1.4h3.8
		c0.8,0,1.4,0.6,1.4,1.4V87.6z"/>
	<path clip-path="url(#SVGID_2_)" fill="#FFFFFF" d="M328.8,75h-4.2c-2.4,0-4,1.6-4,4v8.5c0,2.4,1.6,4,4,4h4.2c2.4,0,4-1.6,4-4V79
		C332.8,76.6,331.2,75,328.8,75 M330,87.6c0,0.9-0.6,1.4-1.4,1.4h-3.8c-0.8,0-1.4-0.6-1.4-1.4v-8.8c0-0.8,0.6-1.4,1.4-1.4h3.8
		c0.8,0,1.4,0.6,1.4,1.4V87.6z"/>
	<path clip-path="url(#SVGID_2_)" fill="#FFFFFF" d="M345.1,75h-3.8c-2.4,0-4,1.6-4,4v8.5c0,2.4,1.6,4,4,4h3.8c2.4,0,4-1.6,4-4v-4.3
		h-6.1v2.5h3.3v2c0,0.9-0.6,1.4-1.4,1.4h-3.3c-0.9,0-1.4-0.6-1.4-1.4v-8.8c0-0.8,0.6-1.4,1.4-1.4h3.3c0.8,0,1.4,0.6,1.4,1.4V80h2.8
		v-1C349.1,76.6,347.4,75,345.1,75"/>
	<rect x="353.5" y="75" clip-path="url(#SVGID_2_)" fill="#FFFFFF" width="2.8" height="16.5"/>
	<polygon clip-path="url(#SVGID_2_)" fill="#FFFFFF" points="230.2,84.4 237.1,84.4 237.1,81.9 230.2,81.9 230.2,77.4 237.5,77.4 
		237.5,75 227.4,75 227.4,91.5 237.8,91.5 237.8,89 230.2,89 	"/>
	<polygon clip-path="url(#SVGID_2_)" fill="#FFFFFF" points="266.7,81.9 260.2,81.9 260.2,75 257.3,75 257.3,91.5 260.2,91.5 
		260.2,84.4 266.7,84.4 266.7,91.5 269.6,91.5 269.6,75 266.7,75 	"/>
	<polygon clip-path="url(#SVGID_2_)" fill="#FFFFFF" points="283.5,86.3 283.4,86.3 276.9,75 274,75 274,91.5 276.9,91.5 
		276.9,80.2 277,80.2 283.5,91.5 286.3,91.5 286.3,75 283.5,75 	"/>
	<path clip-path="url(#SVGID_2_)" fill="#FFFFFF" d="M249.3,75h-3.8c-2.4,0-4,1.6-4,4v8.5c0,2.4,1.6,4,4,4h3.8c2.4,0,4-1.6,4-4v-1
		h-2.8v1.2c0,0.9-0.6,1.4-1.4,1.4h-3.3c-0.8,0-1.4-0.6-1.4-1.4v-8.8c0-0.8,0.6-1.4,1.4-1.4h3.3c0.8,0,1.4,0.6,1.4,1.4V80h2.8v-1
		C253.3,76.6,251.7,75,249.3,75"/>
	<rect x="360.8" y="75" clip-path="url(#SVGID_2_)" fill="#FFFFFF" width="2.8" height="16.5"/>
	<polygon clip-path="url(#SVGID_2_)" fill="#FFFFFF" points="212.1,77.4 216.8,77.4 216.8,91.5 219.6,91.5 219.6,77.4 224.4,77.4 
		224.4,75 212.1,75 	"/>
	<polygon clip-path="url(#SVGID_2_)" fill="#FFFFFF" points="361.1,74.2 363.3,74.2 366.2,71.1 363.1,71.1 	"/>
	<path clip-path="url(#SVGID_2_)" fill="#FFFFFF" d="M58.1,82.7V43.7c0-4,3.4-7.2,7.7-7.2H83V26.4H46.6v56.3H58.1z"/>
	<rect x="15.9" y="15.2" clip-path="url(#SVGID_2_)" fill="#FFFFFF" width="30.7" height="11.2"/>
</g>
</svg>
